<svg xmlns="http://www.w3.org/2000/svg" width="108" height="108"><g fill="none" fill-rule="evenodd"><circle cx="54" cy="54" r="52.5" stroke="#c5403c" stroke-width="3"/><path stroke="#3D3D3D" stroke-width="1.4" d="M70.3 35v38a2.3 2.3 0 01-2.3 2.3H40a2.3 2.3 0 01-2.3-2.3V35a2.3 2.3 0 012.3-2.3h28a2.3 2.3 0 012.3 2.3zM43 45h22m-22-4h22m-22 8h22m-22 4h13M43 65h8"/><path d="M70.981 43.679a.3.3 0 00-.422.037L53.893 63.577a.3.3 0 00-.07.187l-.062 3.186a.3.3 0 00.358.3l3.126-.614a.3.3 0 00.172-.102l16.665-19.861a.3.3 0 00-.037-.423l-3.064-2.571zm-3.407 4.061l2.299 1.927" stroke="#3D3D3D" stroke-width="1.4"/></g></svg>