<?xml version="1.0" encoding="UTF-8"?>
<!DOCTYPE svg PUBLIC "-//W3C//DTD SVG 1.1//EN" "http://www.w3.org/Graphics/SVG/1.1/DTD/svg11.dtd">
<svg xmlns="http://www.w3.org/2000/svg">
<symbol id="arrow-left" viewBox="0 0 33 26">
	<path fill="none" stroke-width="2" d="M14 2L3 13l11 11M3 13h28"/>
</symbol>
<symbol id="flag" viewBox="0 0 23 25">
	<path d="M3 2.144C3 1.512 2.552 1 2 1s-1 .512-1 1.144v20.712C1 23.488 1.448 24 2 24s1-.512 1-1.144V2.143zm15.493 4.764a.677.677 0 0 1 .005-.842 22.672 22.672 0 0 1 3.166-3.092c.904-.72-.274-1.246-.538-1.356C15.748-.626 10.375 4.07 5 2.64v11.084c5.383 1.43 10.766-3.285 16.148-1.012.263.11.503.083.619-.09.115-.171.087-.467-.074-.756a44.382 44.382 0 0 0-3.2-4.958z"/>
</symbol>
<symbol id="step-1" viewBox="0 0 108 108">
	<g fill="none" fill-rule="evenodd">
		<circle cx="54" cy="54" r="52.5" stroke="#c5403c" stroke-width="3"/>
		<path stroke="#3D3D3D" stroke-width="1.4" d="M70.3 35v38a2.3 2.3 0 0 1-2.3 2.3H40a2.3 2.3 0 0 1-2.3-2.3V35a2.3 2.3 0 0 1 2.3-2.3h28a2.3 2.3 0 0 1 2.3 2.3zM43 45h22m-22-4h22m-22 8h22m-22 4h13M43 65h8"/>
		<path stroke="#3D3D3D" stroke-width="1.4" d="M70.981 43.679a.3.3 0 0 0-.422.037L53.893 63.577a.3.3 0 0 0-.07.187l-.062 3.186a.3.3 0 0 0 .358.3l3.126-.614a.3.3 0 0 0 .172-.102l16.665-19.861a.3.3 0 0 0-.037-.423l-3.064-2.571zm-3.407 4.061l2.299 1.927"/>
	</g>
</symbol>
<symbol id="step-2" viewBox="0 0 108 108">
	<g fill="none" fill-rule="evenodd">
		<circle cx="54" cy="54" r="52.5" stroke="#c5403c" stroke-width="3"/>
		<g stroke="#3D3D3D" stroke-width="1.4" transform="translate(40 32)">
			<path d="M27.3 5v34a4.3 4.3 0 0 1-4.3 4.3H5A4.3 4.3 0 0 1 .7 39V5A4.3 4.3 0 0 1 5 .7h18A4.3 4.3 0 0 1 27.3 5z"/>
			<circle cx="14" cy="39.5" r="1.3"/>
			<path d="M20.8 25L16 29v-4h-2a2 2 0 0 1-2-2V13a2 2 0 0 1 2-2h18a2 2 0 0 1 2 2v10a2 2 0 0 1-2 2H20.8zM1 36h26.02"/>
		</g>
	</g>
</symbol>
<symbol id="step-3" viewBox="0 0 108 108">
	<g fill="none" fill-rule="evenodd">
		<circle cx="54" cy="54" r="52.5" stroke="#c5403c" stroke-width="3"/>
		<rect width="46.6" height="32.6" x="30.7" y="38.7" stroke="#3D3D3D" stroke-width="1.4" rx="5"/>
		<path stroke="#3D3D3D" stroke-width="1.4" d="M31 59h46.01M31 64h46"/>
	</g>
</symbol>
</svg>